<?xml version="1.0" encoding="utf-8"?><!-- Generator: Adobe Illustrator 15.0.0, SVG Export Plug-In . SVG Version: 6.00 Build 0)  --><!DOCTYPE svg PUBLIC "-//W3C//DTD SVG 1.1//EN" "http://www.w3.org/Graphics/SVG/1.1/DTD/svg11.dtd"><svg fill="#1A1A1A" xmlns="http://www.w3.org/2000/svg" xmlns:xlink="http://www.w3.org/1999/xlink" viewBox="0 0 50 50" width="24px" height="24px"><g><path d="M30.656,41.971l-4.242-4.244c-0.571-0.571-1.045-1.214-1.414-1.908c-0.369,0.694-0.842,1.337-1.414,1.908l-4.243,4.244c-0.072,0.072-0.151,0.136-0.226,0.205c-0.531,0.492-1.115,0.91-1.744,1.237C18.4,46.648,21.43,49,25,49s6.6-2.352,7.626-5.587c-0.628-0.327-1.212-0.744-1.743-1.237C30.808,42.106,30.729,42.043,30.656,41.971z"/><path d="M41,33h-6c-0.819,0-1.609-0.125-2.354-0.354C32.875,33.391,33,34.181,33,35v6c0,0.104-0.012,0.205-0.016,0.308c-0.028,0.73-0.146,1.438-0.358,2.105c1.126,0.586,2.382,0.9,3.688,0.9c2.137,0,4.146-0.832,5.657-2.343c2.524-2.525,3.004-6.331,1.441-9.344c-0.669,0.212-1.378,0.33-2.109,0.357C41.201,32.988,41.102,33,41,33z"/><path d="M29.266,23.236c0.854,0.453,1.811,0.694,2.805,0.694c1.603,0,3.108-0.624,4.242-1.758L39.485,19H35C32.306,19,30.021,20.786,29.266,23.236z"/><path d="M33,9v6c0,0.819-0.125,1.61-0.354,2.354C33.391,17.125,34.181,17,35,17h6c0.102,0,0.201,0.012,0.302,0.015c0.732,0.028,1.441,0.146,2.11,0.358c1.563-3.013,1.084-6.819-1.441-9.344c-1.512-1.511-3.521-2.343-5.657-2.343c-1.306,0-2.562,0.314-3.688,0.9c0.212,0.668,0.33,1.375,0.358,2.105C32.988,8.795,33,8.896,33,9z"/><path d="M31,15v-4.485l-3.172,3.172c-1.134,1.133-1.758,2.64-1.758,4.242c0,0.994,0.241,1.951,0.694,2.805C29.215,19.979,31,17.694,31,15z"/><path d="M8.03,30.657l4.243-4.243c0.571-0.571,1.214-1.045,1.908-1.414c-0.694-0.369-1.337-0.843-1.909-1.415L8.03,19.343c-0.072-0.072-0.135-0.151-0.205-0.226c-0.493-0.531-0.911-1.115-1.238-1.744C3.352,18.4,1,21.43,1,25s2.352,6.601,5.587,7.626c0.327-0.628,0.745-1.212,1.238-1.743C7.895,30.809,7.958,30.729,8.03,30.657z"/><path d="M19.343,8.03l4.243,4.243c0.571,0.571,1.045,1.214,1.414,1.908c0.369-0.693,0.842-1.336,1.414-1.908l4.242-4.243c0.072-0.073,0.151-0.136,0.227-0.206c0.531-0.493,1.115-0.91,1.743-1.237C31.601,3.352,28.57,1,25,1s-6.6,2.352-7.626,5.587c0.628,0.328,1.212,0.745,1.744,1.238C19.192,7.895,19.271,7.958,19.343,8.03z"/><path d="M9,17h6c0.819,0,1.61,0.125,2.354,0.354C17.125,16.61,17,15.819,17,15V9c0-0.104,0.012-0.204,0.016-0.307c0.028-0.73,0.146-1.438,0.358-2.106c-1.125-0.586-2.382-0.9-3.688-0.9c-2.137,0-4.146,0.832-5.656,2.343c-1.511,1.511-2.343,3.52-2.343,5.656c0,1.306,0.314,2.562,0.9,3.688c0.668-0.211,1.375-0.33,2.106-0.358C8.796,17.012,8.896,17,9,17z"/><path d="M17,41v-6c0-0.819,0.125-1.609,0.354-2.354C16.61,32.875,15.819,33,15,33H9c-0.104,0-0.205-0.012-0.307-0.016c-0.73-0.028-1.438-0.146-2.106-0.358c-0.586,1.126-0.9,2.382-0.9,3.688c0,2.137,0.832,4.146,2.343,5.657c1.511,1.511,3.52,2.343,5.656,2.343c1.306,0,2.562-0.314,3.688-0.9c-0.211-0.668-0.33-1.375-0.358-2.105C17.012,41.204,17,41.104,17,41z"/><path d="M26.765,29.266c-0.453,0.854-0.694,1.811-0.694,2.805c0,1.603,0.624,3.109,1.758,4.242L31,39.486V35C31,32.306,29.214,30.021,26.765,29.266z"/><path d="M32.071,26.07c-0.994,0-1.951,0.241-2.806,0.694C30.021,29.215,32.306,31,35,31h4.485l-3.173-3.172C35.18,26.694,33.674,26.07,32.071,26.07z"/><path d="M49,25c0-3.571-2.353-6.601-5.588-7.626c-0.323,0.623-0.74,1.207-1.237,1.744c-0.069,0.074-0.132,0.153-0.204,0.226l-4.244,4.243c-0.571,0.571-1.214,1.045-1.908,1.414c0.694,0.369,1.337,0.842,1.908,1.414l4.244,4.243c0.072,0.072,0.135,0.151,0.204,0.226c0.497,0.537,0.914,1.121,1.237,1.744C46.647,31.601,49,28.57,49,25z"/><path d="M23.236,20.734c0.453-0.854,0.694-1.811,0.694-2.805c0-1.603-0.625-3.109-1.758-4.243L19,10.515V15C19,17.695,20.786,19.979,23.236,20.734z"/><path d="M19,35v4.485l3.172-3.173c1.134-1.133,1.758-2.639,1.758-4.241c0-0.994-0.241-1.951-0.694-2.806C20.786,30.021,19,32.306,19,35z"/><path d="M20.734,23.235C19.979,20.786,17.694,19,15,19h-4.485l3.172,3.172c1.133,1.134,2.64,1.758,4.242,1.758C18.923,23.93,19.88,23.688,20.734,23.235z"/><path d="M20.734,26.765c-0.854-0.453-1.811-0.694-2.805-0.694c-1.603,0-3.109,0.625-4.243,1.758L10.515,31H15C17.695,31,19.979,29.215,20.734,26.765z"/><path d="M27.046,25.848C27.017,25.569,27,25.287,27,25c0-0.286,0.017-0.569,0.046-0.847c-0.219-0.177-0.431-0.365-0.632-0.567c-0.202-0.202-0.389-0.414-0.566-0.632C25.569,22.983,25.287,23,25,23c-0.286,0-0.569-0.017-0.847-0.046c-0.177,0.219-0.365,0.431-0.567,0.632s-0.414,0.389-0.632,0.566C22.983,24.431,23,24.714,23,25s-0.017,0.569-0.046,0.848c0.218,0.177,0.43,0.364,0.632,0.566s0.389,0.414,0.566,0.632C24.431,27.017,24.713,27,25,27c0.286,0,0.569,0.017,0.848,0.046c0.177-0.219,0.364-0.431,0.566-0.632S26.828,26.025,27.046,25.848z"/></g></svg>