<svg xmlns="http://www.w3.org/2000/svg" version="1.1" xmlns:xlink="http://www.w3.org/1999/xlink" xmlns:svgjs="http://svgjs.dev/svgjs" viewBox="0 0 1422 800"><defs><filter id="llleaves-blur-2" x="-100%" y="-100%" width="400%" height="400%"><feGaussianBlur in="SourceGraphic" stdDeviation="2"></feGaussianBlur></filter><filter id="llleaves-blur-3" x="-100%" y="-100%" width="400%" height="400%"><feGaussianBlur in="SourceGraphic" stdDeviation="4"></feGaussianBlur></filter><filter id="llleaves-blur-4" x="-100%" y="-100%" width="400%" height="400%"><feGaussianBlur in="SourceGraphic" stdDeviation="12"></feGaussianBlur></filter></defs><g fill="#ab34ff" style="--darkreader-inline-fill:#4a0080;" data-darkreader-inline-fill=""><path d="M1315 523H1365C1393 523 1415 545 1415 573H1365C1337 573 1315 551 1315 523Z " transform="matrix(-0.32178858198193777,-0.3000727072450026,0.3000727072450026,-0.32178858198193777,1639.8015708350836,1133.9393883155306)" opacity="0.68"></path><path d="M1306 281H1356C1384 281 1406 303 1406 331H1356C1328 331 1306 309 1306 281Z " transform="matrix(-0.2692513853315714,-0.3705927388321921,0.3705927388321921,-0.2692513853315714,1607.70350042696,890.9146777679134)" opacity="0.70"></path><path d="M907 348H957C985 348 1007 370 1007 398H957C929 398 907 376 907 348Z " transform="matrix(-0.27439868880884705,-0.3641393590432108,0.3641393590432108,-0.27439868880884705,1083.775564266949,823.8320775300529)" opacity="0.70"></path><path d="M116 339H166C194 339 216 361 216 389H166C138 389 116 367 116 339Z " transform="matrix(-0.039296305459243334,0.24810710811443049,-0.24810710811443049,-0.039296305459243334,262.834174059887,337.1180752401691)" filter="url(#llleaves-blur-3)" opacity="0.38"></path><path d="M801 130H851C879 130 901 152 901 180H851C823 180 801 158 801 130Z " transform="matrix(-0.3644218964500744,-0.21039908001404445,0.21039908001404445,-0.3644218964500744,1128.5111764768365,390.53501104171335)" opacity="0.65"></path><path d="M1279 616H1329C1357 616 1379 638 1379 666H1329C1301 666 1279 644 1279 616Z " transform="matrix(-0.2004154001010805,-0.42979221249345856,0.42979221249345856,-0.2004154001010805,1319.855258526029,1340.6601218685992)" opacity="0.73"></path><path d="M1047 606H1097C1125 606 1147 628 1147 656H1097C1069 656 1047 634 1047 606Z " transform="matrix(-0.04393828182788565,-0.5022168593862009,0.5022168593862009,-0.04393828182788565,828.3014568924978,1209.656950580058)" opacity="0.77"></path><path d="M209 250H259C287 250 309 272 309 300H259C231 300 209 278 209 250Z " transform="matrix(-0.10639904201920089,0.25066043486231543,-0.25066043486231543,-0.10639904201920089,355.48897147010973,239.33868392594056)" filter="url(#llleaves-blur-3)" opacity="0.42"></path><path d="M864 27H914C942 27 964 49 964 77H914C886 77 864 55 864 27Z " transform="matrix(-0.3262044754019165,-0.29371582891994086,0.29371582891994086,-0.3262044754019165,1196.8776674135147,337.4189003537256)" opacity="0.67"></path><path d="M-6 724H44C72 724 94 746 94 774H44C16 774 -6 752 -6 724Z " transform="matrix(1.4584641356874192e-17,0.2381852688796245,-0.2381852688796245,1.4584641356874192e-17,222.40076639083875,738.5198481692966)" filter="url(#llleaves-blur-3)" opacity="0.36"></path><path d="M560 405H610C638 405 660 427 660 455H610C582 455 560 433 560 405Z " transform="matrix(-0.37303205259191546,0.006511298698298134,-0.006511298698298134,-0.37303205259191546,840.3494105213365,586.4318904085618)" filter="url(#llleaves-blur-2)" opacity="0.57"></path><path d="M976 233H1026C1054 233 1076 255 1076 283H1026C998 283 976 261 976 233Z " transform="matrix(-0.18659865879356952,-0.43959889177836986,0.43959889177836986,-0.18659865879356952,1104.033709843383,757.1709169333484)" opacity="0.73"></path><path d="M344 134H394C422 134 444 156 444 184H394C366 184 344 162 344 134Z " transform="matrix(-0.2716730834387374,0.17642656325249684,-0.17642656325249684,-0.2716730834387374,529.0910184320095,132.68395434527548)" filter="url(#llleaves-blur-2)" opacity="0.50"></path><path d="M1116 402H1166C1194 402 1216 424 1216 452H1166C1138 452 1116 430 1116 402Z " transform="matrix(-0.008923060596179947,-0.511201799184091,0.511201799184091,-0.008923060596179947,958.121120403539,1026.8714447232192)" opacity="0.79"></path><path d="M353 369H403C431 369 453 391 453 419H403C375 419 353 397 353 369Z " transform="matrix(-0.2592494745582883,0.18835576862964032,-0.18835576862964032,-0.2592494745582883,581.6897110870684,420.2369182182205)" filter="url(#llleaves-blur-2)" opacity="0.49"></path><path d="M134 126H184C212 126 234 148 234 176H184C156 176 134 154 134 126Z " transform="matrix(-0.10623297585418721,0.25026920749458464,-0.25026920749458464,-0.10623297585418721,241.33751788885274,120.99164517497869)" filter="url(#llleaves-blur-3)" opacity="0.42"></path><path d="M862 236H912C940 236 962 258 962 286H912C884 286 862 264 862 236Z " transform="matrix(-0.33374458959258857,-0.2800449620345537,0.2800449620345537,-0.33374458959258857,1143.283330617422,603.5083432591787)" opacity="0.67"></path><path d="M1058 128H1108C1136 128 1158 150 1158 178H1108C1080 178 1058 156 1058 128Z " transform="matrix(0.06380866146187907,-0.519679844050894,0.519679844050894,0.06380866146187907,957.7889869604512,719.042542004723)" opacity="0.80"></path><path d="M1153 629H1203C1231 629 1253 651 1253 679H1203C1175 679 1153 657 1153 629Z " transform="matrix(-0.008906968581245834,-0.5102798882659539,0.5102798882659539,-0.008906968581245834,879.9920362773048,1273.6918630360774)" opacity="0.78"></path><path d="M-5 502H45C73 502 95 524 95 552H45C17 552 -5 530 -5 502Z " transform="matrix(1.4584641356874192e-17,0.2381852688796245,-0.2381852688796245,1.4584641356874192e-17,170.5236366995621,516.2816629004169)" filter="url(#llleaves-blur-3)" opacity="0.36"></path><path d="M347 642H397C425 642 447 664 447 692H397C369 692 347 670 347 642Z " transform="matrix(-0.2592494745582883,0.18835576862964032,-0.18835576862964032,-0.2592494745582883,625.5553390756106,765.1421593844111)" filter="url(#llleaves-blur-2)" opacity="0.49"></path><path d="M83 719H133C161 719 183 741 183 769H133C105 769 83 747 83 719Z " transform="matrix(-0.025745539070132235,0.24495244178366526,-0.24495244178366526,-0.025745539070132235,318.6687733833745,730.5760063109509)" filter="url(#llleaves-blur-3)" opacity="0.38"></path><path d="M1322 713H1372C1400 713 1422 735 1422 763H1372C1344 763 1322 741 1322 713Z " transform="matrix(-0.32178858198193777,-0.3000727072450026,0.3000727072450026,-0.32178858198193777,1592.0402765324068,1387.179727842814)" opacity="0.68"></path><path d="M1323 37H1373C1401 37 1423 59 1423 87H1373C1345 87 1323 65 1323 37Z " transform="matrix(0.19508402413310572,-0.5082112579656166,0.5082112579656166,0.19508402413310572,1073.6405368713777,747.6788476905391)" opacity="0.84"></path><path d="M1313 161H1363C1391 161 1413 183 1413 211H1363C1335 211 1313 189 1313 161Z " transform="matrix(-0.2692513853315714,-0.3705927388321921,0.3705927388321921,-0.2692513853315714,1661.0593887841442,741.1986606999502)" opacity="0.70"></path><path d="M525 518H575C603 518 625 540 625 568H575C547 568 525 546 525 518Z " transform="matrix(-0.3661210356400321,0.032031440096873774,-0.032031440096873774,-0.3661210356400321,802.9126674656209,723.385644296835)" filter="url(#llleaves-blur-2)" opacity="0.56"></path><path d="M1325 400H1375C1403 400 1425 422 1425 450H1375C1347 450 1325 428 1325 400Z " transform="matrix(-0.32178858198193777,-0.3000727072450026,0.3000727072450026,-0.32178858198193777,1689.9283996460385,974.3601198042022)" opacity="0.68"></path><path d="M675 133H725C753 133 775 155 775 183H725C697 183 675 161 675 133Z " transform="matrix(-0.38367617121538294,-0.06765246084019258,0.06765246084019258,-0.38367617121538294,992.4761353184022,267.6688691611701)" filter="url(#llleaves-blur-2)" opacity="0.60"></path><path d="M789 337H839C867 337 889 359 889 387H839C811 387 789 365 789 337Z " transform="matrix(-0.36940734380997725,-0.19641736882877953,0.19641736882877953,-0.36940734380997725,1077.8296739405528,660.5196309065577)" opacity="0.64"></path><path d="M729 430H779C807 430 829 452 829 480H779C751 480 729 458 729 430Z " transform="matrix(-0.38236447593510003,-0.1316586474054867,0.1316586474054867,-0.38236447593510003,1016.9572421839465,731.5379228793447)" opacity="0.62"></path><path d="M189 430H239C267 430 289 452 289 480H239C211 480 189 458 189 430Z " transform="matrix(-0.10639904201920089,0.25066043486231543,-0.25066043486231543,-0.10639904201920089,378.4798689049426,443.503720186643)" filter="url(#llleaves-blur-3)" opacity="0.42"></path><path d="M834 454H884C912 454 934 476 934 504H884C856 504 834 482 834 454Z " transform="matrix(-0.35367285348295185,-0.2385553518502146,0.2385553518502146,-0.35367285348295185,1082.3787889426767,859.2922278539236)" opacity="0.65"></path><path d="M330 252H380C408 252 430 274 430 302H380C352 302 330 280 330 252Z " transform="matrix(-0.23082350766526127,0.20783441982081477,-0.20783441982081477,-0.23082350766526127,525.283067203165,261.96103209136777)" filter="url(#llleaves-blur-2)" opacity="0.48"></path><path d="M242 633H292C320 633 342 655 342 683H292C264 683 242 661 242 633Z " transform="matrix(-0.13632364515837173,0.24593436603837868,-0.24593436603837868,-0.13632364515837173,493.6313172394977,675.888123631002)" filter="url(#llleaves-blur-3)" opacity="0.43"></path><path d="M736 535H786C814 535 836 557 836 585H786C758 585 736 563 736 535Z " transform="matrix(-0.38236447593510003,-0.1316586474054867,0.1316586474054867,-0.38236447593510003,1012.809635537916,877.6078033843685)" opacity="0.62"></path><path d="M1191 167H1241C1269 167 1291 189 1291 217H1241C1213 217 1191 195 1191 167Z " transform="matrix(-0.03530683407567767,-0.5049112506973684,0.5049112506973684,-0.03530683407567767,1187.8728209540213,825.3737742579643)" opacity="0.78"></path><path d="M959 716H1009C1037 716 1059 738 1059 766H1009C981 766 959 744 959 716Z " transform="matrix(-0.18659865879356952,-0.43959889177836986,0.43959889177836986,-0.18659865879356952,871.5352679149396,1322.8248879704101)" opacity="0.73"></path><path d="M643 607H693C721 607 743 629 743 657H693C665 657 643 635 643 607Z " transform="matrix(-0.38326923879546654,-0.060703883880230965,0.060703883880230965,-0.38326923879546654,920.2407278729524,916.293950447735)" filter="url(#llleaves-blur-2)" opacity="0.60"></path><path d="M442 213H492C520 213 542 235 542 263H492C464 263 442 241 442 213Z " transform="matrix(-0.33009197998914047,0.10725338586699014,-0.10725338586699014,-0.33009197998914047,679.9315599910008,263.79322539085626)" filter="url(#llleaves-blur-2)" opacity="0.53"></path><path d="M449 110H499C527 110 549 132 549 160H499C471 160 449 138 449 110Z " transform="matrix(-0.3268735214662138,0.11255157949404966,-0.11255157949404966,-0.3268735214662138,677.3043504433374,122.96468723040807)" filter="url(#llleaves-blur-2)" opacity="0.53"></path><path d="M492 18H542C570 18 592 40 592 68H542C514 68 492 46 492 18Z " transform="matrix(-0.3340640546247595,0.10213363107127098,-0.10213363107127098,-0.3340640546247595,727.4544637426843,2.0083263082357874)" filter="url(#llleaves-blur-2)" opacity="0.54"></path><path d="M756 640H806C834 640 856 662 856 690H806C778 690 756 668 756 640Z " transform="matrix(-0.37546297784167576,-0.16716688800647717,0.16716688800647717,-0.37546297784167576,997.4571796160833,1049.4193919979352)" opacity="0.63"></path><path d="M624 23H674C702 23 724 45 724 73H674C646 73 624 51 624 23Z " transform="matrix(-0.3427592089626787,0.08545946902677312,-0.08545946902677312,-0.3427592089626787,909.1217613541305,6.852759906163492)" filter="url(#llleaves-blur-2)" opacity="0.54"></path><path d="M926 128H976C1004 128 1026 150 1026 178H976C948 178 926 156 926 128Z " transform="matrix(-0.233087759017417,-0.40371984124053656,0.40371984124053656,-0.233087759017417,1141.724517091197,582.6929921804285)" opacity="0.72"></path><path d="M842 715H892C920 715 942 737 942 765H892C864 765 842 743 842 715Z " transform="matrix(-0.33374458959258857,-0.2800449620345537,0.2800449620345537,-0.33374458959258857,982.4669020110192,1236.7711024333375)" opacity="0.67"></path><path d="M553 196H603C631 196 653 218 653 246H603C575 246 553 224 553 196Z " transform="matrix(-0.37303205259191546,0.006511298698298134,-0.006511298698298134,-0.37303205259191546,829.3773247252491,299.51377050773954)" filter="url(#llleaves-blur-2)" opacity="0.57"></path><path d="M1184 300H1234C1262 300 1284 322 1284 350H1234C1206 350 1184 328 1184 300Z " transform="matrix(-0.03530683407567767,-0.5049112506973684,0.5049112506973684,-0.03530683407567767,1113.4724767727416,959.535204435148)" opacity="0.78"></path><path d="M243 150H293C321 150 343 172 343 200H293C265 200 243 178 243 150Z " transform="matrix(-0.1673259656426733,0.23896624430878358,-0.23896624430878358,-0.1673259656426733,383.8456006873404,134.26493440499422)" filter="url(#llleaves-blur-3)" opacity="0.45"></path><path d="M1089 241H1139C1167 241 1189 263 1189 291H1139C1111 291 1089 269 1089 241Z " transform="matrix(-0.01776719025948358,-0.508785760396313,0.508785760396313,-0.01776719025948358,1023.8998174401326,850.233053700423)" opacity="0.78"></path><path d="M647 246H697C725 246 747 268 747 296H697C669 296 647 274 647 246Z " transform="matrix(-0.38326923879546654,-0.060703883880230965,0.060703883880230965,-0.38326923879546654,947.6879069088977,417.1765707780924)" filter="url(#llleaves-blur-2)" opacity="0.60"></path><path d="M3 384H53C81 384 103 406 103 434H53C25 434 3 412 3 384Z " transform="matrix(1.4584641356874192e-17,0.2381852688796245,-0.2381852688796245,1.4584641356874192e-17,150.41777497176642,396.3761807493799)" filter="url(#llleaves-blur-3)" opacity="0.36"></path><path d="M311 552H361C389 552 411 574 411 602H361C333 602 311 580 311 552Z " transform="matrix(-0.23082350766526127,0.20783441982081477,-0.20783441982081477,-0.23082350766526127,564.2477465037695,635.1569383675417)" filter="url(#llleaves-blur-2)" opacity="0.48"></path><path d="M1022 349H1072C1100 349 1122 371 1122 399H1072C1044 399 1022 377 1022 349Z " transform="matrix(-0.08627728222064251,-0.48930278210395617,0.48930278210395617,-0.08627728222064251,981.4900060336491,930.8002859659613)" opacity="0.76"></path><path d="M87 560H137C165 560 187 582 187 610H137C109 610 87 588 87 560Z " transform="matrix(-0.025745539070132235,0.24495244178366526,-0.24495244178366526,-0.025745539070132235,283.8243172960523,566.5026558316653)" filter="url(#llleaves-blur-3)" opacity="0.38"></path><path d="M663 351H713C741 351 763 373 763 401H713C685 401 663 379 663 351Z " transform="matrix(-0.38449478039963086,-0.08172688850181564,0.08172688850181564,-0.38449478039963086,956.4154683482542,578.8413089320558)" filter="url(#llleaves-blur-2)" opacity="0.60"></path><path d="M1222 43H1272C1300 43 1322 65 1322 93H1272C1244 93 1222 71 1222 43Z " transform="matrix(0.44362947625822385,-0.3856412202156327,0.3856412202156327,0.44362947625822385,681.4797032248763,528.3688277287256)" opacity="0.90"></path></g><g fill="none" stroke-width="3" stroke="#ab34ff" style="--darkreader-inline-stroke:#8933c4;" data-darkreader-inline-stroke=""><path d="M1077 723H1127C1155 723 1177 745 1177 773H1127C1099 773 1077 751 1077 723Z " transform="matrix(-0.01776719025948358,-0.508785760396313,0.508785760396313,-0.01776719025948358,766.451874645996,1334.6914102807384)" opacity="0.78"></path><path d="M1116 32H1166C1194 32 1216 54 1216 82H1166C1138 82 1116 60 1116 32Z " transform="matrix(0.4586317284410358,-0.3713926508081796,0.3713926508081796,0.4586317284410358,610.066023541686,463.9018223211984)" opacity="0.91"></path><path d="M748 233H798C826 233 848 255 848 283H798C770 283 748 261 748 233Z " transform="matrix(-0.38236447593510003,-0.1316586474054867,0.1316586474054867,-0.38236447593510003,1069.1589207655943,461.7136354208342)" opacity="0.62"></path><path d="M940 597H990C1018 597 1040 619 1040 647H990C962 647 940 625 940 597Z " transform="matrix(-0.23338467321031672,-0.4042341117081272,0.4042341117081272,-0.23338467321031672,969.6172089957585,1167.357037327863)" opacity="0.72"></path><path d="M456 419H506C534 419 556 441 556 469H506C478 469 456 447 456 419Z " transform="matrix(-0.3455091437488559,0.07976707103464045,-0.07976707103464045,-0.3455091437488559,716.2442062763016,557.0439218809639)" filter="url(#llleaves-blur-2)" opacity="0.54"></path><path d="M197 534H247C275 534 297 556 297 584H247C219 584 197 562 197 534Z " transform="matrix(-0.10639904201920089,0.25066043486231543,-0.25066043486231543,-0.10639904201920089,413.39974646677695,556.5639370777413)" filter="url(#llleaves-blur-3)" opacity="0.42"></path><path d="M287 729H337C365 729 387 751 387 779H337C309 779 287 757 287 729Z " transform="matrix(-0.19721353894674423,0.22686822468058454,-0.22686822468058454,-0.19721353894674423,574.5196040342137,826.2444166484881)" filter="url(#llleaves-blur-2)" opacity="0.46"></path><path d="M2 270H52C80 270 102 292 102 320H52C24 320 2 298 2 270Z " transform="matrix(1.4584641356874192e-17,0.2381852688796245,-0.2381852688796245,1.4584641356874192e-17,122.26465431948922,282.61436601825955)" filter="url(#llleaves-blur-3)" opacity="0.36"></path><path d="M3 619H53C81 619 103 641 103 669H53C25 669 3 647 3 619Z " transform="matrix(1.4584641356874192e-17,0.2381852688796245,-0.2381852688796245,1.4584641356874192e-17,206.39131315847817,631.37618074938)" filter="url(#llleaves-blur-3)" opacity="0.36"></path><path d="M1172 522H1222C1250 522 1272 544 1272 572H1222C1194 572 1172 550 1172 522Z " transform="matrix(-0.03530683407567767,-0.5049112506973684,0.5049112506973684,-0.03530683407567767,988.9584971090176,1183.31438659158)" opacity="0.78"></path><path d="M633 487H683C711 487 733 509 733 537H683C655 537 633 515 633 487Z " transform="matrix(-0.38326923879546654,-0.060703883880230965,0.060703883880230965,-0.38326923879546654,913.6925015506254,749.6946029534766)" filter="url(#llleaves-blur-2)" opacity="0.60"></path><path d="M439 606H489C517 606 539 628 539 656H489C461 656 439 634 439 606Z " transform="matrix(-0.33009197998914047,0.10725338586699014,-0.10725338586699014,-0.33009197998914047,718.0918646967605,786.8411336841895)" filter="url(#llleaves-blur-2)" opacity="0.53"></path><path d="M394 726H444C472 726 494 748 494 776H444C416 776 394 754 394 726Z " transform="matrix(-0.2857176601389739,0.16495916799346652,-0.16495916799346652,-0.2857176601389739,694.7429762647978,892.3320921752702)" filter="url(#llleaves-blur-2)" opacity="0.51"></path><path d="M140 636H190C218 636 240 658 240 686H190C162 686 140 664 140 636Z " transform="matrix(-0.057857794942703225,0.25060964293359905,-0.25060964293359905,-0.057857794942703225,366.6459550182226,651.628170299743)" filter="url(#llleaves-blur-3)" opacity="0.39"></path><path d="M540 623H590C618 623 640 645 640 673H590C562 673 540 651 540 623Z " transform="matrix(-0.3661210356400321,0.032031440096873774,-0.032031440096873774,-0.3661210356400321,826.7677842103932,866.3478814375853)" filter="url(#llleaves-blur-2)" opacity="0.56"></path><path d="M241 33H291C319 33 341 55 341 83H291C263 83 241 61 241 33Z " transform="matrix(-0.34636099605592585,0.07996373663587983,-0.07996373663587983,-0.34636099605592585,396.42894657715544,54.819490410202675)" filter="url(#llleaves-blur-2)" opacity="0.54"></path><path d="M1045 492H1095C1123 492 1145 514 1145 542H1095C1067 542 1045 520 1045 492Z " transform="matrix(-0.08627728222064251,-0.48930278210395617,0.48930278210395617,-0.08627728222064251,936.5040856838582,1097.3919013119043)" opacity="0.76"></path><path d="M712 727H762C790 727 812 749 812 777H762C734 777 712 755 712 727Z " transform="matrix(-0.3848978603801533,-0.10313307085732892,0.10313307085732892,-0.3848978603801533,977.7361003249655,1120.0305909991598)" filter="url(#llleaves-blur-2)" opacity="0.61"></path><path d="M845 575H895C923 575 945 597 945 625H895C867 625 845 603 845 575Z " transform="matrix(-0.33374458959258857,-0.2800449620345537,0.2800449620345537,-0.33374458959258857,1025.6744304646345,1050.8869947764786)" opacity="0.67"></path><path d="M6 34H56C84 34 106 56 106 84H56C28 84 6 62 6 34Z " transform="matrix(-0.3336099484639959,0.10199479688528613,-0.10199479688528613,-0.3336099484639959,80.69985013021565,72.97127833379973)" filter="url(#llleaves-blur-2)" opacity="0.53"></path><path d="M741 29H791C819 29 841 51 841 79H791C763 79 741 57 741 29Z " transform="matrix(-0.3805837776001632,-0.026613010244997223,0.026613010244997223,-0.3805837776001632,1090.6046655284993,95.60241509420162)" filter="url(#llleaves-blur-2)" opacity="0.59"></path><path d="M295 454H345C373 454 395 476 395 504H345C317 504 295 482 295 454Z " transform="matrix(-0.19721353894674423,0.22686822468058454,-0.22686822468058454,-0.19721353894674423,521.7085505586267,495.19574764068886)" filter="url(#llleaves-blur-2)" opacity="0.46"></path><path d="M92 456H142C170 456 192 478 192 506H142C114 506 92 484 92 456Z " transform="matrix(-0.025745539070132235,0.24495244178366526,-0.24495244178366526,-0.025745539070132235,263.4779910459018,458.60035755945313)" filter="url(#llleaves-blur-3)" opacity="0.38"></path><path d="M362 25H412C440 25 462 47 462 75H412C384 75 362 53 362 25Z " transform="matrix(-0.34663501020326165,0.08002699778641806,-0.08002699778641806,-0.34663501020326165,558.8149740930647,34.36062742215884)" filter="url(#llleaves-blur-2)" opacity="0.55"></path><path d="M492 721H542C570 721 592 743 592 771H542C514 771 492 749 492 721Z " transform="matrix(-0.35694209636354873,0.056534074160807406,-0.056534074160807406,-0.35694209636354873,777.6370355530057,981.6373356920496)" filter="url(#llleaves-blur-2)" opacity="0.55"></path><path d="M442 315H492C520 315 542 337 542 365H492C464 365 442 343 442 315Z " transform="matrix(-0.33009197998914047,0.10725338586699014,-0.10725338586699014,-0.33009197998914047,690.8714053494338,399.4626073497486)" filter="url(#llleaves-blur-2)" opacity="0.53"></path><path d="M1205 725H1255C1283 725 1305 747 1305 775H1255C1227 775 1205 753 1205 725Z " transform="matrix(-0.07799945922256714,-0.492469203810317,0.492469203810317,-0.07799945922256714,983.537418466584,1426.5484451988732)" opacity="0.77"></path><path d="M990 27H1040C1068 27 1090 49 1090 77H1040C1012 77 990 55 990 27Z " transform="matrix(0.11974954597039546,-0.5186922693272495,0.5186922693272495,0.11974954597039546,888.4884741857718,585.2129837098789)" opacity="0.82"></path><path d="M120 25H170C198 25 220 47 220 75H170C142 75 120 53 120 25Z " transform="matrix(-0.3375790998044951,0.09679924919755126,-0.09679924919755126,-0.3375790998044951,232.2284094266417,50.42308262664104)" filter="url(#llleaves-blur-2)" opacity="0.54"></path><path d="M103 228H153C181 228 203 250 203 278H153C125 278 103 256 103 228Z " transform="matrix(-0.039296305459243334,0.24810710811443049,-0.24810710811443049,-0.039296305459243334,221.78343308821513,224.9815777396807)" filter="url(#llleaves-blur-3)" opacity="0.38"></path><path d="M547 301H597C625 301 647 323 647 351H597C569 351 547 329 547 301Z " transform="matrix(-0.37303205259191546,0.006511298698298134,-0.006511298698298134,-0.37303205259191546,821.8228187730188,443.7212038220805)" filter="url(#llleaves-blur-2)" opacity="0.57"></path><path d="M1227 418H1277C1305 418 1327 440 1327 468H1277C1249 468 1227 446 1227 418Z " transform="matrix(-0.1344764192336375,-0.46897500679139337,0.46897500679139337,-0.1344764192336375,1240.9704593527679,1101.4541373931108)" opacity="0.75"></path><path d="M9 149H59C87 149 109 171 109 199H59C31 199 9 177 9 149Z " transform="matrix(-0.053208081171067824,0.25032434074497956,-0.25032434074497956,-0.053208081171067824,105.69571207871945,168.489070019812)" filter="url(#llleaves-blur-3)" opacity="0.39"></path><path d="M245 345H295C323 345 345 367 345 395H295C267 395 245 373 245 345Z " transform="matrix(-0.13632364515837173,0.24593436603837868,-0.24593436603837868,-0.13632364515837173,426.2111907559197,347.88911072727586)" filter="url(#llleaves-blur-3)" opacity="0.43"></path><path d="M941 467H991C1019 467 1041 489 1041 517H991C963 517 941 495 941 467Z " transform="matrix(-0.23338467321031672,-0.4042341117081272,0.4042341117081272,-0.23338467321031672,1023.4010281910255,1007.42126392223)" opacity="0.72"></path><path d="M403 501H453C481 501 503 523 503 551H453C425 551 403 529 403 501Z " transform="matrix(-0.3095401894088412,0.13781617158065373,-0.13781617158065373,-0.3095401894088412,665.713012053629,626.3874139030144)" filter="url(#llleaves-blur-2)" opacity="0.52"></path><path d="M184 729H234C262 729 284 751 284 779H234C206 779 184 757 184 729Z " transform="matrix(-0.08166271790557769,0.2513320024989833,-0.2513320024989833,-0.08166271790557769,442.6134058741386,756.7620007160434)" filter="url(#llleaves-blur-3)" opacity="0.40"></path><path d="M601 721H651C679 721 701 743 701 771H651C623 771 601 749 601 721Z " transform="matrix(-0.3780156931520124,-0.013200598884824638,0.013200598884824638,-0.3780156931520124,887.2405694738808,1036.5932969654223)" filter="url(#llleaves-blur-2)" opacity="0.58"></path><path d="M561 101H611C639 101 661 123 661 151H611C583 151 561 129 561 101Z " transform="matrix(-0.35990180361484797,0.050580899890927004,-0.050580899890927004,-0.35990180361484797,837.2731953949288,140.44269742211446)" filter="url(#llleaves-blur-2)" opacity="0.56"></path></g></svg>